# xmcd
#
# Track frame offsets:
#	150
#	20185
#	36141
#	61824
#	79326
#	101194
#	124826
#	131135
#	145929
#	164207
#	181813
#	205166
#
# Disc length: 3063 seconds
#
# Revision: 2
# Processed by: cddbd v1.5.1PL0 Copyright (c) Steve Scherf et al.
# Submitted via: dBpowerAMP V4.0
#
DISCID=b50bf50c
DTITLE=MoonDogs - The Blues'll Get You
DYEAR=2004
DGENRE=Blues
TTITLE0=Everything
TTITLE1=The Midnight Rider
TTITLE2=Travelling Show
TTITLE3=Blue Tattoo
TTITLE4=The Blues'll Get You
TTITLE5=The Little Red Rooster
TTITLE6=Moon Dog Boogie
TTITLE7=That's What She Said
TTITLE8=Don't Worry 'Bout A Thing
TTITLE9=Tank Full Of Fuel
TTITLE10=Hitman
TTITLE11=Baby Please Don't Go
EXTD=
EXTT0=
EXTT1=
EXTT2=
EXTT3=
EXTT4=
EXTT5=
EXTT6=
EXTT7=
EXTT8=
EXTT9=
EXTT10=
EXTT11=
PLAYORDER=
